#!OML:ASF H:\Pregnant\Project 1\Capture day 1\Session 1\femalepreg.ASF
:FULLY-SPECIFIED
:DEGREES
961
root 4.82971 15.4831 1.68043 -156.076 175.045 -175.72
lowerback -10.297 -4.28852 -8.7734
upperback -7.50597 -5.013 -0.110258
thorax -1.42569 -2.21232 4.31219
lowerneck -26.9127 3.32327 5.76675
upperneck 34.5752 1.89198 0.771661
head 17.2817 1.67667 -0.217316
rclavicle -4.12478e-015 -3.57812e-015
rhumerus -74.9525 -0.82493 -73.3385
rradius 28.5725
rwrist -26.1166
rhand -8.49003 -17.1024
rfingers 7.12502
rthumb 17.4373 -46.3402
lclavicle -4.12478e-015 -3.57812e-015
lhumerus -21.4666 -13.9225 82.7123
lradius 117.874
lwrist 27.1641
lhand -38.8335 -31.3681
lfingers 7.12502
lthumb -11.8431 -1.72305
rfemur -71.2662 9.17541 13.1828
rtibia 49.1459
rfoot -3.54793 -13.5751
rtoes -10.1827
lfemur -9.64231 -14.6714 -28.973
ltibia 11.1477
lfoot -9.42292 -5.81836
ltoes -20.7151
962
root 4.8261 15.4839 1.87129 -155.816 174.846 -175.582
lowerback -10.6166 -4.34994 -8.93803
upperback -7.61872 -5.05064 -0.119564
thorax -1.35831 -2.22437 4.37167
lowerneck -26.7327 3.18428 5.57593
upperneck 34.6202 1.7753 0.806362
head 17.2534 1.60997 -0.197556
rclavicle -4.2192e-014 -5.56597e-015
rhumerus -74.8604 -1.29559 -73.219
rradius 28.6554
rwrist -26.2691
rhand -8.44001 -16.9866
rfingers 7.12502
rthumb 17.4854 -46.2202
lclavicle -4.2192e-014 -5.56597e-015
lhumerus -21.5261 -14.6443 82.8534
lradius 117.769
lwrist 26.8462
lhand -38.878 -31.3804
lfingers 7.12502
lthumb -11.886 -1.73777
rfemur -71.0759 9.76798 12.0206
rtibia 46.7558
rfoot -4.13411 -14.1411
rtoes -10.4728
lfemur -7.57947 -14.6645 -29.0325
ltibia 8.16426
lfoot -8.00969 -6.56935
ltoes -21.173
963
root 4.82421 15.481 2.0646 -155.586 174.635 -175.456
lowerback -10.9405 -4.40962 -9.07329
upperback -7.73323 -5.08684 -0.107222
thorax -1.2911 -2.23616 4.43731
lowerneck -26.5102 3.04681 5.39791
upperneck 34.671 1.68206 0.780289
head 17.2195 1.54495 -0.202524
rclavicle 3.03395e-014 1.63003e-014
rhumerus -74.7069 -1.71528 -73.1487
rradius 28.7373
rwrist -26.476
rhand -8.48954 -16.9009
rfingers 7.12502
rthumb 17.4378 -46.1387
lclavicle 3.03395e-014 1.63003e-014
lhumerus -21.7639 -15.2997 83.0616
lradius 117.541
lwrist 26.6053
lhand -38.8561 -31.3153
lfingers 7.12502
lthumb -11.8649 -1.67146
rfemur -70.8537 10.3508 10.8955
rtibia 44.6103
rfoot -4.80422 -14.7873
rtoes -10.8664
lfemur -4.69967 -14.6583 -29.0891
ltibia 3.75767
lfoot -5.90785 -7.44511
ltoes -21.5649
964
root 4.82427 15.474 2.26039 -155.393 174.409 -175.35
lowerback -11.2737 -4.46379 -9.16136
upperback -7.84019 -5.11741 -0.0757633
thorax -1.21324 -2.24703 4.49646
lowerneck -26.292 2.9176 5.14046
upperneck 34.7399 1.62584 0.784771
head 17.1952 1.48891 -0.171378
rclavicle -2.5842e-015 1.51076e-014
rhumerus -74.4829 -2.08605 -73.1415
rradius 28.8287
rwrist -26.7469
rhand -8.65124 -16.8614
rfingers 7.12502
rthumb 17.2821 -46.113
lclavicle -2.5842e-015 1.51076e-014
lhumerus -22.1705 -15.8868 83.3329
lradius 117.188
lwrist 26.4265
lhand -38.773 -31.2258
lfingers 7.12502
lthumb -11.7847 -1.57734
rfemur -70.59 10.902 9.86096
rtibia 42.7357
rfoot -5.53521 -15.4946
rtoes -11.3345
lfemur -2.12237 -14.6518 -29.1358
ltibia -9.54166e-015
lfoot -4.03284 -8.20636
ltoes -21.8931
965
root 4.82629 15.4626 2.45863 -155.238 174.17 -175.268
lowerback -11.6192 -4.51059 -9.19503
upperback -7.93774 -5.14062 -0.0259292
thorax -1.12191 -2.2566 4.54443
lowerneck -26.05 2.79201 4.88104
upperneck 34.8195 1.60096 0.729106
head 17.1719 1.43591 -0.160093
rclavicle 1.98412e-014 1.23246e-014
rhumerus -74.1844 -2.40811 -73.1959
rradius 28.9341
rwrist -27.0708
rhand -8.931 -16.8889
rfingers 7.12502
rthumb 17.0129 -46.1639
lclavicle 1.98412e-014 1.23246e-014
lhumerus -22.7376 -16.4 83.6642
lradius 116.711
lwrist 26.3004
lhand -38.6306 -31.1234
lfingers 7.12502
lthumb -11.6474 -1.46711
rfemur -70.2764 11.4104 8.95258
rtibia 41.1437
rfoot -6.29975 -16.2389
rtoes -11.809
lfemur -1.53539 -14.6437 -29.1769
ltibia 1.90833e-014
lfoot -3.78113 -8.54667
ltoes -22.1709
